<?xml version="1.0" encoding="UTF-8" standalone="no"?>
<!-- Created with Inkscape (http://www.inkscape.org/) -->

<svg
   width="20px"
   height="20px"
   viewBox="0 0 20 20"
   version="1.1"
   id="svg5"
   inkscape:version="1.2.2 (b0a8486541, 2022-12-01)"
   sodipodi:docname="favicon.svg"
   xml:space="preserve"
   xmlns:inkscape="http://www.inkscape.org/namespaces/inkscape"
   xmlns:sodipodi="http://sodipodi.sourceforge.net/DTD/sodipodi-0.dtd"
   xmlns="http://www.w3.org/2000/svg"
   xmlns:svg="http://www.w3.org/2000/svg"><sodipodi:namedview
     id="namedview775"
     pagecolor="#ffffff"
     bordercolor="#000000"
     borderopacity="0.25"
     inkscape:showpageshadow="2"
     inkscape:pageopacity="0.0"
     inkscape:pagecheckerboard="0"
     inkscape:deskcolor="#d1d1d1"
     showgrid="false"
     inkscape:zoom="42.359684"
     inkscape:cx="12.240412"
     inkscape:cy="12.476486"
     inkscape:window-width="3840"
     inkscape:window-height="2123"
     inkscape:window-x="0"
     inkscape:window-y="0"
     inkscape:window-maximized="1"
     inkscape:current-layer="layer1" /><defs
     id="defs2"><rect
       x="276.92765"
       y="381.31854"
       width="163.87586"
       height="207.91663"
       id="rect116" /></defs><g
     inkscape:label="Ebene 1"
     inkscape:groupmode="layer"
     id="layer1"><rect
       style="fill:#52a3fc;fill-opacity:1;stroke:#000000;stroke-width:0.0278672;stroke-linejoin:round;paint-order:markers fill stroke"
       id="rect1151-3"
       width="20"
       height="20"
       x="0.0139336"
       y="0.0139336"
       rx="1" /><text
       xml:space="preserve"
       transform="scale(0.26458333)"
       id="text114"
       style="font-size:18px;font-family:Amiri, Normal;white-space:pre;shape-inside:url(#rect116);fill:#FFFFFF"><tspan
         x="276.92773"
         y="397.69611"
         id="tspan64597">♿</tspan></text><g
       aria-label="P"
       transform="scale(0.89202128,1.1210495)"
       id="text779"
       style="font-size:21.3803px;font-family:'Noto Sans Symbols2';-inkscape-font-specification:'Noto Sans Symbols2, Normal';fill:#52a3fc;stroke-width:1.78169"><path
         d="M 1.4189886,15.706586 V 2.9389552 q 0,-0.3236276 0.031319,-0.5011008 0.041758,-0.1774732 0.2714295,-0.3758256 0.2401108,-0.208792 0.6890136,-0.208792 h 4.4472696 q 0.8978056,0 1.3780272,0.020879 0.4802216,0.020879 1.2631915,0.1252752 0.7934092,0.104396 1.3884672,0.4071444 0.605496,0.3027484 1.096158,0.7725303 1.200554,1.1796748 1.200554,3.2675948 0,0.9186848 -0.250551,1.6598964 -0.240111,0.730772 -0.584617,1.200554 -0.344507,0.469782 -0.918685,0.8038489 -0.574178,0.334067 -1.0544,0.501101 -0.4697818,0.156594 -1.1692349,0.240111 -0.6890136,0.08352 -1.0648392,0.09396 -0.365386,0.01044 -0.9708828,0.01044 h -2.714296 v 4.750018 q 0,0.981322 -0.9604432,0.981322 H 2.4107505 q -0.2818692,0 -0.469782,-0.04176 Q 1.7634953,16.604391 1.5860222,16.37472 1.4189886,16.134609 1.4189886,15.706586 Z M 4.3942745,9.2653527 h 2.8604504 q 0.8560472,0 1.461544,-0.1983524 0.6159364,-0.208792 0.9291243,-0.4593424 0.313188,-0.26099 0.4697818,-0.7203324 0.156594,-0.4593424 0.177473,-0.7412116 0.02088,-0.2923088 0.02088,-0.78297 Q 10.292648,5.4862175 10.042098,4.9224791 9.8019872,4.3483011 9.3008865,4.1081903 8.7997857,3.8576399 8.2882453,3.7741231 7.7767049,3.6906063 6.9832953,3.6906063 H 4.4151537 l -0.020879,0.7934096 z"
         style="font-weight:bold;font-family:'CMU Sans Serif';-inkscape-font-specification:'CMU Sans Serif, Bold';fill:#ffffff"
         id="path64577" /></g><ellipse
       style="fill:#ffffff;fill-opacity:0.178105;stroke-width:1.25464"
       id="path3345"
       ry="13.323629"
       rx="14.459957"
       cy="5.8888826"
       cx="1.6200461" /><path
       fill-rule="evenodd"
       clip-rule="evenodd"
       d="m 14.788717,10.904938 c 0,0.40884 -0.331443,0.740268 -0.740268,0.740268 -0.40884,0 -0.740267,-0.331428 -0.740267,-0.740268 0,-0.40884 0.331427,-0.740267 0.740267,-0.740267 0.408825,0 0.740268,0.331427 0.740268,0.740267 z m 0.740267,0 c 0,0.689871 -0.471847,1.269534 -1.110401,1.433894 v 0.786909 h 2.405869 v 0.740268 h -2.405869 v 1.480535 h 3.634664 l 0.370134,1.850669 h 0.436807 v 0.740268 H 17.81646 l -0.370134,-1.85067 h -0.436807 c 0,1.635351 -1.32572,2.961071 -2.96107,2.961071 -1.635355,0 -2.961071,-1.32572 -2.961071,-2.961071 0,-1.509997 1.130275,-2.756015 2.590937,-2.93816 v -0.809819 c -0.638565,-0.16436 -1.110402,-0.744023 -1.110402,-1.433894 0,-0.817674 0.662861,-1.4805349 1.480536,-1.4805349 0.8177,0 1.480535,0.6628609 1.480535,1.4805349 z m -1.850669,5.181873 h 2.590937 c 0,1.226525 -0.994278,2.220803 -2.220803,2.220803 -1.226515,0 -2.220803,-0.994278 -2.220803,-2.220803 0,-1.100382 0.800332,-2.013873 1.850669,-2.190105 z"
       fill="#080341"
       id="path64583"
       style="fill:#ffffff;fill-opacity:1;stroke-width:0.49351" /></g></svg>
