<?xml version="1.0" encoding="UTF-8" standalone="no"?>
<!-- Created with Inkscape (http://www.inkscape.org/) -->

<svg
   width="20px"
   height="20px"
   viewBox="0 0 20 20"
   version="1.1"
   id="svg5"
   inkscape:version="1.2.2 (b0a8486541, 2022-12-01)"
   sodipodi:docname="favicon.svg"
   xml:space="preserve"
   xmlns:inkscape="http://www.inkscape.org/namespaces/inkscape"
   xmlns:sodipodi="http://sodipodi.sourceforge.net/DTD/sodipodi-0.dtd"
   xmlns="http://www.w3.org/2000/svg"
   xmlns:svg="http://www.w3.org/2000/svg"><sodipodi:namedview
     id="namedview775"
     pagecolor="#ffffff"
     bordercolor="#000000"
     borderopacity="0.25"
     inkscape:showpageshadow="2"
     inkscape:pageopacity="0.0"
     inkscape:pagecheckerboard="0"
     inkscape:deskcolor="#d1d1d1"
     showgrid="false"
     inkscape:zoom="42.359684"
     inkscape:cx="12.216805"
     inkscape:cy="12.452879"
     inkscape:window-width="1920"
     inkscape:window-height="2123"
     inkscape:window-x="20"
     inkscape:window-y="20"
     inkscape:window-maximized="0"
     inkscape:current-layer="layer1" /><defs
     id="defs2"><rect
       x="276.92765"
       y="381.31854"
       width="163.87586"
       height="207.91663"
       id="rect116" /></defs><g
     inkscape:label="Ebene 1"
     inkscape:groupmode="layer"
     id="layer1"><rect
       style="fill:#52a3fc;fill-opacity:1;stroke:#000000;stroke-width:0.0278672;stroke-linejoin:round;paint-order:markers fill stroke"
       id="rect1151-3"
       width="20"
       height="20"
       x="0.0139336"
       y="0.0139336"
       rx="1" /><text
       xml:space="preserve"
       transform="scale(0.26458333)"
       id="text114"
       style="font-size:18px;font-family:Amiri, Normal;white-space:pre;shape-inside:url(#rect116);fill:#FFFFFF"><tspan
         x="276.92773"
         y="397.69611"
         id="tspan4917">♿</tspan></text><text
       xml:space="preserve"
       style="font-size:21.3803px;font-family:'Noto Sans Symbols2';-inkscape-font-specification:'Noto Sans Symbols2, Normal';fill:#52a3fc;stroke-width:1.78169"
       x="-0.52277702"
       y="16.687908"
       id="text779"
       transform="scale(0.89202128,1.1210495)"><tspan
         sodipodi:role="line"
         id="tspan777"
         x="-0.52277702"
         y="16.687908"
         style="font-style:normal;font-variant:normal;font-weight:bold;font-stretch:normal;font-size:21.3803px;font-family:'CMU Sans Serif';-inkscape-font-specification:'CMU Sans Serif, Bold';font-variant-ligatures:normal;font-variant-caps:normal;font-variant-numeric:normal;font-variant-east-asian:normal;fill:#ffffff;fill-opacity:1;stroke-width:1.78169">P</tspan></text><ellipse
       style="fill:#ffffff;fill-opacity:0.178105;stroke-width:1.25464"
       id="path3345"
       ry="13.323629"
       rx="14.459957"
       cy="5.8888826"
       cx="1.6200461" /><path
       fill-rule="evenodd"
       clip-rule="evenodd"
       d="m 14.788717,10.904938 c 0,0.40884 -0.331443,0.740268 -0.740268,0.740268 -0.40884,0 -0.740267,-0.331428 -0.740267,-0.740268 0,-0.40884 0.331427,-0.740267 0.740267,-0.740267 0.408825,0 0.740268,0.331427 0.740268,0.740267 z m 0.740267,0 c 0,0.689871 -0.471847,1.269534 -1.110401,1.433894 v 0.786909 h 2.405869 v 0.740268 h -2.405869 v 1.480535 h 3.634664 l 0.370134,1.850669 h 0.436807 v 0.740268 H 17.81646 l -0.370134,-1.85067 h -0.436807 c 0,1.635351 -1.32572,2.961071 -2.96107,2.961071 -1.635355,0 -2.961071,-1.32572 -2.961071,-2.961071 0,-1.509997 1.130275,-2.756015 2.590937,-2.93816 v -0.809819 c -0.638565,-0.16436 -1.110402,-0.744023 -1.110402,-1.433894 0,-0.817674 0.662861,-1.4805349 1.480536,-1.4805349 0.8177,0 1.480535,0.6628609 1.480535,1.4805349 z m -1.850669,5.181873 h 2.590937 c 0,1.226525 -0.994278,2.220803 -2.220803,2.220803 -1.226515,0 -2.220803,-0.994278 -2.220803,-2.220803 0,-1.100382 0.800332,-2.013873 1.850669,-2.190105 z"
       fill="#080341"
       id="path2326"
       style="fill:#ffffff;fill-opacity:1;stroke-width:0.49351" /></g></svg>
